<svg version="1.1" xmlns="http://www.w3.org/2000/svg" viewBox="0 0 1894.6294699075784 1966.3694342519564" width="3789.2589398151567" height="3932.7388685039127">
  <!-- svg-source:excalidraw -->
  
  <defs>
    <style>
      @font-face {
        font-family: "Virgil";
        src: url("https://excalidraw.com/FG_Virgil.woff2");
      }
      @font-face {
        font-family: "Cascadia";
        src: url("https://excalidraw.com/Cascadia.woff2");
      }
    </style>
  </defs>
  <rect x="0" y="0" width="1894.6294699075784" height="1966.3694342519564" fill="#ffffff"></rect><g transform="translate(523.2505636575784 169.4709967519563) rotate(0 147.849609375 65.142578125)"><path d="M1.032045658727643 -0.4438459329428494 C80.09993607677902 -1.6363265656486654, 158.228585531312 0.25321762430161754, 296.0137618680459 0.8668861795732905 M0.16045527359789727 0.09832056284977744 C97.2340097778209 -1.8669025665189118, 194.5711215947904 -1.5132545387438976, 295.4568097256938 -0.536920636469166 M295.21985672041774 0.7154700346291065 C295.9399460309641 39.66677244396197, 294.54911181866095 77.3340973447499, 294.49327693507075 130.26780780032277 M296.1162717733532 -0.43350971676409245 C296.13561100324824 30.1866948749077, 295.8941069897099 60.33606473452383, 295.6053217444569 129.7828016784042 M295.57849033802626 131.52511396489442 C183.00819355556064 131.32178829233624, 69.05448675045689 130.18127854559347, -1.0382889361034513 131.46847718780265 M295.7541773224219 130.85357951369323 C190.70555505982836 132.8384755640586, 85.5944588124141 132.42597094488997, -0.05042306879130474 130.95404133742883 M0.25667784735560417 128.38152595236897 C2.6175359822958852 80.1536849034739, 0.19710734860600487 29.589376111658922, 1.386627297848463 1.8862944431602955 M-0.8810721244663 130.05263613723218 C-0.3853606828928604 83.02645835255753, -0.6865914115191116 34.639675328014704, -0.3563585486263037 0.21649925969541073" stroke="#000000" stroke-width="1" fill="none"></path></g><g transform="translate(638.1021261575784 169.5706061269563) rotate(0 19.5 12.5)"><text x="19.5" y="18" font-family="Virgil, Segoe UI Emoji" font-size="20px" fill="#000000" text-anchor="middle" style="white-space: pre;" direction="ltr">APP</text></g><g transform="translate(560.9224386575784 222.0920905019563) rotate(0 92.5 37.5)"><text x="0" y="18" font-family="Virgil, Segoe UI Emoji" font-size="20px" fill="#000000" text-anchor="start" style="white-space: pre;" direction="ltr">onUploadScreen</text><text x="0" y="43" font-family="Virgil, Segoe UI Emoji" font-size="20px" fill="#000000" text-anchor="start" style="white-space: pre;" direction="ltr">processingResponse</text><text x="0" y="68" font-family="Virgil, Segoe UI Emoji" font-size="20px" fill="#000000" text-anchor="start" style="white-space: pre;" direction="ltr">isProcessing</text></g><g transform="translate(210.8677511575783 459.5881842519563) rotate(0 118.056640625 85.326171875)"><path d="M1.6298321770661863 -0.35636424435718694 C78.77220604608422 -1.1150162062329794, 158.70933625080912 -0.7826421474193879, 234.78868794921988 1.4351253864798352 M0.44533069164716693 -0.14042273397616475 C68.02102253562641 1.0050795511742634, 134.66799660788544 0.8426590462162127, 235.45160849216458 0.6013864176206872 M235.7414116449654 1.4822953753173351 C237.48222627257368 49.57414844140658, 237.60813929652235 102.62582130119699, 235.70643099024892 171.58345530554652 M236.35449337027967 -0.449741980060935 C236.59430130891246 64.66640632391427, 236.25542106799526 132.15912056111702, 235.1545640733093 170.41550771333277 M235.6429338722001 170.81649968968222 C172.4573998682873 169.22864617138922, 109.56224784069298 170.97953994864054, -1.095252366095322 170.93916030645985 M236.45853185117213 169.962635633294 C183.98957565246138 169.70952622373954, 132.91185649690215 169.40509741575073, 0.8256846397703896 171.29862182523095 M1.905560214072466 169.9494372420013 C2.2178773559173717 112.5074127745138, 1.1806357778152596 53.97222958510247, 0.06080325320363045 -0.9661646075546741 M0.7782384064048529 170.99845931865275 C-2.0794323879501464 134.11666312654052, -1.9038129645607116 97.02268775046832, -0.4055356476455927 0.38875249959528446" stroke="#000000" stroke-width="1" fill="none"></path></g><g transform="translate(246.08657029474648 481.8185492962041) rotate(0 71.49999999999997 12.5)"><text x="0" y="18" font-family="Virgil, Segoe UI Emoji" font-size="20px" fill="#000000" text-anchor="start" style="white-space: pre;" direction="ltr">Loading screen</text></g><g><g transform="translate(522.2505636575784 251.21342832434644) rotate(0 -121.65184712439225 100.7334197338329)"><path d="M-0.9785624854266644 0.6102659694850445 C-41.43848925328009 34.283785121483824, -202.83395611225328 168.09715644440664, -243.3522240971477 201.58178780954017 M0.7085534803848712 -0.11494834187440572 C-39.8095328823024 33.23676858530949, -203.0687857046321 166.4679027268668, -244.01224772916933 199.7210464938792" stroke="#000000" stroke-width="1" fill="none"></path></g><g transform="translate(522.2505636575784 251.21342832434644) rotate(0 -121.65184712439225 100.7334197338329)"><path d="M-227.61767616505998 174.87625412445226 C-231.75593463276275 179.9798139373065, -235.7159241936356 186.95704408444522, -244.55855700285932 200.82609620459996 M-228.73596816706734 173.8030252269254 C-233.8383561078864 183.8797094955675, -241.56174361775913 193.61014178369442, -244.40207558596333 200.34057119072102" stroke="#000000" stroke-width="1" fill="none"></path></g><g transform="translate(522.2505636575784 251.21342832434644) rotate(0 -121.65184712439225 100.7334197338329)"><path d="M-214.65765798196972 190.78719159148446 C-221.9829417306321 191.79760457826018, -229.19085927916487 194.78737279602387, -244.55855700285932 200.82609620459996 M-215.77594998397709 189.7139626939576 C-225.86712926463395 193.55634059866233, -238.6802957748572 197.03808139179932, -244.40207558596333 200.34057119072102" stroke="#000000" stroke-width="1" fill="none"></path></g></g><g transform="translate(243.23549669329265 324.8849197430278) rotate(323.40051967671707 106.5 12.5)"><text x="0" y="18" font-family="Virgil, Segoe UI Emoji" font-size="20px" fill="#000000" text-anchor="start" style="white-space: pre;" direction="ltr">isProcessing === true</text></g><g transform="translate(554.1880636575784 456.6936530019563) rotate(0 148.037109375 90.40625)"><path d="M1.0866453870065316 -1.0187199014624102 C79.96175802083593 -1.4931034239230625, 159.60586487419272 -1.848164843974588, 295.96256376007983 -0.7217253414675645 M-0.22804491934436355 -0.6540929061490831 C69.67708441904303 0.9065561927269603, 140.18105839257768 1.3023157357806743, 295.6985755274083 -0.7367391910986014 M294.6111256889999 -0.9651475362479687 C295.29111118245754 39.65473340061726, 296.9839180224005 76.00699425081257, 296.5339065603912 182.40279539301991 M296.0427514705807 -0.9570448491722345 C295.9716334730212 65.01101162916748, 294.81385824976604 128.67388278951404, 296.646269062534 180.2531363274902 M296.37393571496466 180.18811859156813 C180.40685921015884 183.2928025151214, 61.077355304078495 182.9450958943582, 0.55351813072191 179.71532023357102 M295.71899529965305 180.2950472382895 C236.44591971935762 181.28819213400496, 176.60783553179976 180.61192618002292, -0.2715181138115295 181.32263979740722 M1.30763004347682 181.42232866957784 C0.2965772457804996 121.31044446694432, 0.709301383086713 60.61282494326588, -0.16452469304203987 -1.7714578323066235 M0.8038227949291468 180.14263402484357 C-0.6966886808548587 109.26121848040492, -1.9881652285729068 36.442659610160604, 0.4710801634937525 -0.4894279930740595" stroke="#000000" stroke-width="1" fill="none"></path></g><g><g transform="translate(683.3638449075784 325.2717780019563) rotate(0 -0.7139978496031745 64.76170877815225)"><path d="M0.16855213567614546 0.1801412232220172 C0.08206672593951216 21.86206845119595, -0.5415322549641133 107.79222375229, -0.856920100003481 129.32469648197292 M-1.2020967224333434 -0.7708885799255223 C-1.3822914642188697 21.08787131593563, -1.3408715733978895 108.47398363546468, -1.5965478348825126 130.29430613623" stroke="#000000" stroke-width="1" fill="none"></path></g><g transform="translate(683.3638449075784 325.2717780019563) rotate(0 -0.7139978496031745 64.76170877815225)"><path d="M-11.420105500370228 102.71575116265336 C-10.95142271793348 108.93338253831065, -8.11564289180637 117.80984516375734, -1.1966402645502239 130.23263364613987 M-11.250159189328516 102.19413145717004 C-10.369765026864734 108.38780744017768, -6.912458858445358 116.99984980162496, -2.1896328463498502 129.4877175963763" stroke="#000000" stroke-width="1" fill="none"></path></g><g transform="translate(683.3638449075784 325.2717780019563) rotate(0 -0.7139978496031745 64.76170877815225)"><path d="M9.100861864937697 102.81525381491296 C3.9919106303713026 109.0346608902572, 1.2494205620863204 117.88407544142781, -1.1966402645502239 130.23263364613987 M9.27080817597941 102.29363410942965 C5.014516010356052 108.44058329548953, 3.334161126114001 117.02771401938823, -2.1896328463498502 129.4877175963763" stroke="#000000" stroke-width="1" fill="none"></path></g></g><g transform="translate(686.7808654907008 332.6262726586409) rotate(0 92.62783462389376 9.568991180154313)"><text x="0" y="13.137982360308634" font-family="Virgil, Segoe UI Emoji" font-size="15.310385888246907px" fill="#000000" text-anchor="start" style="white-space: pre;" direction="ltr">onUploadScreen === true</text></g><g transform="translate(198.9771261575783 704.8928717519564) rotate(0 68.470703125 76.728515625)"><path d="M0.0967080406844616 0.193831879645586 C52.09728495001691 -1.2606622656764375, 101.45062598898804 -2.085829563993393, 135.464130025357 -1.6006397418677807 M-0.5375183429569006 -0.5479328725486994 C38.52142925440204 -1.0654646456645422, 76.08175967951976 -0.9695762098239356, 136.07561228610575 -0.7404311392456293 M136.73328457400203 1.7585779018700123 C138.26222867654104 56.31170195366212, 137.53826076672811 113.64517955159681, 138.25339744612575 152.58405943587422 M136.4435908589512 -0.046741316094994545 C137.93043658365679 52.911824261460424, 137.68695083488893 103.61445989211643, 136.2098987493664 152.85846816562116 M137.6834711842239 153.6734711714089 C85.20434265944277 152.43104484073854, 33.51718724867533 153.0345198153708, 1.9333013109862804 151.84461386874318 M137.1524470243603 152.60625039599836 C102.65941583899911 151.64722477331605, 68.14542861420922 152.4148394359633, -0.7898231949657202 153.90158705972135 M1.91198955103755 155.10464938357472 C-0.08123136351750881 120.25278920818164, 1.5233606021578452 86.46472984455613, -1.886905450373888 1.1870050020515919 M-0.2868653740733862 154.1785593535751 C-0.41715188014968607 92.22502803111638, -2.2724883674429295 32.52032750394574, 0.4837340507656336 0.3263645078986883" stroke="#000000" stroke-width="1" fill="none"></path></g><g><g transform="translate(305.89817650262574 636.6311530019564) rotate(0 -18.41661282804074 27.409097844781286)"><path d="M1.1510724194347859 1.0167585365474225 C-4.8286861012308755 9.724148503194234, -30.802819265886622 44.06592148070524, -37.0106943942183 52.95654280111182 M0.29624671029858307 0.5049528228957207 C-5.746730265979737 9.32427191085801, -31.86703796668485 45.63501524942297, -37.98429807551627 54.313242866666876" stroke="#000000" stroke-width="1" fill="none"></path></g><g transform="translate(305.89817650262574 636.6311530019564) rotate(0 -18.41661282804074 27.409097844781286)"><path d="M-28.28230522562815 25.32048826767563 C-32.02580105832047 32.867301570134366, -31.33265365785143 36.420294512701346, -39.928795701791095 55.468324954630695 M-30.205008042874468 24.53279697066604 C-31.892437789236602 34.98237456926813, -35.06870454503883 46.50457480506534, -38.83900461063211 54.774086290048324" stroke="#000000" stroke-width="1" fill="none"></path></g><g transform="translate(305.89817650262574 636.6311530019564) rotate(0 -18.41661282804074 27.409097844781286)"><path d="M-11.571650408885773 37.23157629444817 C-18.82246400928769 42.48911115034055, -21.565941771189973 43.59253253075578, -39.928795701791095 55.468324954630695 M-13.494353226132091 36.44388499743858 C-21.0422042558858 42.734123882632396, -30.040018731255643 50.10681782437617, -38.83900461063211 54.774086290048324" stroke="#000000" stroke-width="1" fill="none"></path></g></g><g transform="translate(202.3872824075783 706.7249030019564) rotate(0 65 12.5)"><text x="0" y="18" font-family="Virgil, Segoe UI Emoji" font-size="20px" fill="#000000" text-anchor="start" style="white-space: pre;" direction="ltr">ReactLoading</text></g><g transform="translate(649.2857199075784 469.4358405019563) rotate(0 31 12.5)"><text x="0" y="18" font-family="Virgil, Segoe UI Emoji" font-size="20px" fill="#000000" text-anchor="start" style="white-space: pre;" direction="ltr">Upload</text></g><g transform="translate(568.6216574075784 519.4202155019564) rotate(0 59 52.5)"><text x="0" y="15" font-family="Virgil, Segoe UI Emoji" font-size="17.24834070796461px" fill="#000000" text-anchor="start" style="white-space: pre;" direction="ltr">useError</text><text x="0" y="36" font-family="Virgil, Segoe UI Emoji" font-size="17.24834070796461px" fill="#000000" text-anchor="start" style="white-space: pre;" direction="ltr">timerRef</text><text x="0" y="57" font-family="Virgil, Segoe UI Emoji" font-size="17.24834070796461px" fill="#000000" text-anchor="start" style="white-space: pre;" direction="ltr"></text><text x="0" y="78" font-family="Virgil, Segoe UI Emoji" font-size="17.24834070796461px" fill="#000000" text-anchor="start" style="white-space: pre;" direction="ltr">polling()</text><text x="0" y="99" font-family="Virgil, Segoe UI Emoji" font-size="17.24834070796461px" fill="#000000" text-anchor="start" style="white-space: pre;" direction="ltr">handleUpload()</text></g><g transform="translate(540.1021261575784 744.0881842519564) rotate(0 128.82421875 122.76953125)"><path d="M-1.3760048245036995 -0.8863602180927984 C71.47506640378171 0.5117702705117029, 142.43336157163077 1.1759245433536953, 258.5899761799372 0.538221023678037 M-0.08968655190729409 0.46821032675659274 C59.96695454138656 -0.6937485448157676, 119.44265502639657 0.06337375277375651, 257.4361298600307 -0.3686593456952857 M258.60523785608 1.559455750203493 C257.31395948535123 50.59854842976899, 259.4992926127531 102.26414570398302, 257.3755308947915 243.99106063162503 M257.15836009276666 -0.7877266787396416 C258.8702517634558 68.79496762751612, 258.2460416264147 138.41803330383317, 256.92607259532457 245.93917521784152 M256.97501857645835 244.85169400885894 C203.44780912675225 243.55190231181132, 146.31505274384597 243.72693091906882, 1.0779418895420039 244.96590715707455 M258.06861963256256 246.11748964606522 C185.14757303693395 245.4398920406806, 111.46414241926301 245.83998774540186, 0.6952198242316461 245.48759266704224 M0.4354715414355244 245.82127227170122 C-0.32002189789909485 186.66705232641863, 2.1080895756063063 129.70295838077345, -1.3599470035393757 -0.626184661716443 M-0.3345168793983246 244.892376369722 C1.016886892232672 167.5290784389167, 0.8485486627002783 88.73274540488369, -0.7668520993704367 0.4838301646432068" stroke="#000000" stroke-width="1" fill="none"></path></g><g transform="translate(608.6026841932926 764.5697690733848) rotate(0 56.5 12.5)"><text x="0" y="18" font-family="Virgil, Segoe UI Emoji" font-size="20px" fill="#000000" text-anchor="start" style="white-space: pre;" direction="ltr">UploadCard</text></g><g><g transform="translate(666.7762452750874 650.3081584010631) rotate(0 -2.101536823122615 43.540450825964456)"><path d="M-0.3848393686115742 -0.5811622492969036 C-1.2112787911956577 14.152047722927414, -4.089940710696116 73.02484163041751, -5.035468115457934 87.66206390122582 M1.613981233527884 1.7281236244831235 C0.6639864019295754 16.13818507105217, -4.9590455694912965 71.19420272823947, -5.817054879773077 85.64736364494708" stroke="#000000" stroke-width="1" fill="none"></path></g><g transform="translate(666.7762452750874 650.3081584010631) rotate(0 -2.101536823122615 43.540450825964456)"><path d="M-14.68396550739328 57.23419466757309 C-11.231777910279174 64.05247868373431, -9.612676672467641 75.49614774556031, -4.216542155403313 83.99708169784095 M-13.781496827920476 56.29982149929833 C-12.376420282390418 63.81875551092054, -9.210581570843459 71.19737032037335, -6.147914620969114 84.71679637107697" stroke="#000000" stroke-width="1" fill="none"></path></g><g transform="translate(666.7762452750874 650.3081584010631) rotate(0 -2.101536823122615 43.540450825964456)"><path d="M5.76719513455618 58.928311187478585 C3.225383252810748 65.18362028716544, -1.159922453295688 76.12990119709059, -4.216542155403313 83.99708169784095 M6.669663814028984 57.993938019203824 C2.713224734984459 64.9223685844685, 0.5207251574788145 71.85711374888484, -6.147914620969114 84.71679637107697" stroke="#000000" stroke-width="1" fill="none"></path></g></g><g transform="translate(560.8600423633304 829.546598245319) rotate(0 68 62.5)"><text x="0" y="18" font-family="Virgil, Segoe UI Emoji" font-size="20px" fill="#000000" text-anchor="start" style="white-space: pre;" direction="ltr">videoFile</text><text x="0" y="43" font-family="Virgil, Segoe UI Emoji" font-size="20px" fill="#000000" text-anchor="start" style="white-space: pre;" direction="ltr">srtFile</text><text x="0" y="68" font-family="Virgil, Segoe UI Emoji" font-size="20px" fill="#000000" text-anchor="start" style="white-space: pre;" direction="ltr">useError</text><text x="0" y="93" font-family="Virgil, Segoe UI Emoji" font-size="20px" fill="#000000" text-anchor="start" style="white-space: pre;" direction="ltr"></text><text x="0" y="118" font-family="Virgil, Segoe UI Emoji" font-size="20px" fill="#000000" text-anchor="start" style="white-space: pre;" direction="ltr">handleSubmit()</text></g><g transform="translate(425.5044699075783 1144.3694342519564) rotate(0 73.87890625 79.087890625)"><path d="M-1.5713471584022045 1.5013167671859264 C39.89772643748875 -1.3876564633373345, 83.61639186077228 -2.0256906878475274, 149.15203781798482 0.6503244452178478 M-0.7724533770233393 0.9030377063900232 C43.466337820499035 1.9231926256667065, 85.163798680497 0.9476836377631115, 148.2608307506889 -0.8060209956020117 M149.626093108207 -0.22676124051213264 C147.22663831083926 56.17344204634355, 147.49806677668246 114.61574051752541, 148.2854712791741 156.79271076247096 M147.25086151622236 0.9690620694309473 C148.02510484212536 61.37877563588627, 148.48376717322964 123.19227681525663, 148.50215368531644 158.26913766004145 M148.41061909869313 157.8031067661941 C96.04274166306277 159.94930587859753, 47.36415332044999 158.34954832645062, -1.6003327779471874 156.51225696131587 M147.31239013932645 157.19300917722285 C103.89892367005086 158.44457576832107, 58.62076260543836 159.0668107684546, -0.29503084160387516 158.74202618934214 M1.4600872583687305 158.04782996699214 C-0.6223774615803996 121.72834687405339, 0.6289628084620198 90.2261054498158, -0.7611116580665112 0.37915347144007683 M0.6386339571326971 157.67552600242198 C-0.07494226775124835 125.42716110421969, 0.19778027453467084 93.45477620174496, 0.5547630097717047 0.9652446899563074" stroke="#000000" stroke-width="1" fill="none"></path></g><g transform="translate(720.9771261575784 1182.3342780019564) rotate(0 79.8515625 84.224609375)"><path d="M1.9381241388618946 -0.8096929974853992 C54.00654594972439 0.9172482280342955, 108.88254298641696 2.2982989339440243, 159.8898378200829 0.8145382218062878 M-0.18633724190294743 -0.6850038971751928 C36.70501514100761 -0.3730428163477335, 72.433272049675 -1.3214426581331644, 158.87136285565794 0.009530464187264442 M157.7375808544457 1.2185499481856823 C160.27810520216465 50.89196215062475, 161.52257520243168 101.99675176395249, 160.83561487868428 166.86815271899104 M159.63914935849607 -0.16819103620946407 C158.63545471072203 54.037951183399855, 160.35854231953627 106.78038834014296, 159.89270173572004 167.50782869197428 M158.70261450484395 168.80710707232356 C108.85601484347424 170.37247054374748, 59.561375173559625 170.5786631563955, 1.9304893799126148 167.1020765118301 M160.50754939578474 168.819227674976 C111.71827477323532 167.2023060909615, 62.60269666863023 168.9992332450257, -0.2584390137344599 169.33958677388728 M-1.4928247146308422 168.30741880461574 C0.7518931561231876 102.35530600733982, 0.04487847621443519 35.430029605327576, -1.8195572309195995 0.15290628001093864 M0.5535674598067999 167.70407108403742 C0.5423520621423812 109.56020966783471, -0.4645675006742387 52.10217932157829, 0.7147545721381903 -0.0820483174175024" stroke="#000000" stroke-width="1" fill="none"></path></g><g><g transform="translate(590.2945847625995 1006.8902092594788) rotate(0 -32.21903282820466 59.210815586130764)"><path d="M0.8760523550212385 -0.0767707698047162 C-9.87012806079889 19.714183894436065, -53.52921879699353 98.40848391374203, -64.2601121949914 118.5190758765668 M-0.12315888793207708 -1.1626793692912907 C-11.064005552610181 18.773776671637975, -54.67017874306899 99.58092690548492, -65.31411801143057 119.58431054155272" stroke="#000000" stroke-width="1" fill="none"></path></g><g transform="translate(590.2945847625995 1006.8902092594788) rotate(0 -32.21903282820466 59.210815586130764)"><path d="M-61.153541575501656 89.55603513098659 C-63.94478768972205 100.28310644279182, -61.86271104989403 108.05145950546674, -64.93496453999049 117.70153042550129 M-61.52584554007182 90.0713613645673 C-62.58760074785612 99.75562163384015, -63.35315512689834 109.24286767287691, -64.34887332147426 118.91073942246777" stroke="#000000" stroke-width="1" fill="none"></path></g><g transform="translate(590.2945847625995 1006.8902092594788) rotate(0 -32.21903282820466 59.210815586130764)"><path d="M-43.07128532028988 99.25923105329456 C-51.595823942842856 107.03190983741663, -55.26536689316947 111.71386201260444, -64.93496453999049 117.70153042550129 M-43.443589284860046 99.77455728687526 C-50.21364983947721 106.5075931413131, -56.694117655386094 112.9281353368533, -64.34887332147426 118.91073942246777" stroke="#000000" stroke-width="1" fill="none"></path></g></g><g><g transform="translate(742.3115484805649 1005.3699409187798) rotate(0 29.941309033566824 79.5766860544033)"><path d="M0.31544987037777905 -0.9193069942295551 C10.473079155607389 25.68127843341026, 50.7765443947085 132.16126752003, 60.860695744147094 159.10841437955457 M-0.9780776770133526 1.21245288846083 C9.040531951736897 27.965200400978137, 49.80184262091414 133.82194469209665, 59.98199309172066 160.0726791030362" stroke="#000000" stroke-width="1" fill="none"></path></g><g transform="translate(742.3115484805649 1005.3699409187798) rotate(0 29.941309033566824 79.5766860544033)"><path d="M38.72531406095129 137.68874299222716 C44.12217841755208 144.19062140066103, 52.65828161245741 151.1747514174111, 59.55898770825895 161.1798140226498 M40.22758914230269 138.00919490562865 C45.640676075223745 142.57125580245852, 48.81917508852928 147.683849836615, 59.74475050294729 160.1356764237031" stroke="#000000" stroke-width="1" fill="none"></path></g><g transform="translate(742.3115484805649 1005.3699409187798) rotate(0 29.941309033566824 79.5766860544033)"><path d="M57.8695880305916 130.29842658755328 C57.62841194439927 139.01532808377988, 60.55696579857833 148.1641556988044, 59.55898770825895 161.1798140226498 M59.371863111943 130.61887850095476 C60.54040355788124 136.76211717923792, 59.40215148679724 143.54111843282982, 59.74475050294729 160.1356764237031" stroke="#000000" stroke-width="1" fill="none"></path></g></g><g transform="translate(435.8755636575783 1168.6311530019564) rotate(0 66 12.5)"><text x="0" y="18" font-family="Virgil, Segoe UI Emoji" font-size="20px" fill="#000000" text-anchor="start" style="white-space: pre;" direction="ltr">UploadBUtton</text></g><g transform="translate(730.4497824075784 1199.4553717519564) rotate(0 66 12.5)"><text x="0" y="18" font-family="Virgil, Segoe UI Emoji" font-size="20px" fill="#000000" text-anchor="start" style="white-space: pre;" direction="ltr">UploadBUtton</text></g><g transform="translate(1160.3521261575784 695.7366217519564) rotate(0 131.322265625 131.41015625)"><path d="M-1.279571300390428 0.944278916135586 C95.0550857190714 -2.7903945326620976, 190.544914449444 -2.4352025457265505, 263.8477013451064 -0.6995293150894418 M0.452065353622865 -0.511869692555273 C73.62836637158004 -1.8709607837762952, 146.81490533217385 -1.1075954662444325, 261.91287749525713 0.3476881102599463 M262.89758636826355 -0.04837030052083811 C260.686289772761 84.77737674033656, 260.03230188353297 169.07665321058613, 261.5828434577248 264.1531973695145 M262.8621191736094 -0.6748215257447953 C263.66318161208494 71.47086207423783, 264.2541442379176 143.2049171679412, 262.75892114407105 262.2140131044977 M261.1193360081851 264.2491674516405 C162.33575232657452 262.59782099349366, 62.510198884502145 260.87803222834015, 0.5613512785634173 263.09915369096717 M263.23272988727524 262.28831070961456 C199.06172412647814 262.59518419967065, 134.12161625523137 262.28881121512956, -0.1488596857587782 262.6951381005164 M1.4073719385816763 263.34499042609576 C-2.372370254566603 158.15014082874305, -2.503355087274004 55.182542574264446, 0.21400718957255618 1.4378884693597893 M-0.6053074155500761 262.06594529477854 C1.2665308147904852 170.7199718902773, 2.2478238868419638 79.78025431712229, 0.639556639185635 -0.15277318271429732" stroke="#000000" stroke-width="1" fill="none"></path></g><g><g transform="translate(876.8560324075784 509.54690649487105) rotate(0 143.63267416760266 82.33999395137346)"><path d="M-0.4547142751514911 0.8872241623699664 C47.22996062668797 28.141137217696656, 237.5058527456043 137.37651488093607, 285.42939864964103 164.37257500047176 M1.5074220010545107 0.3074129022751002 C49.633242459761085 27.128501490479234, 240.17636917916178 135.30527913480017, 287.72006261035676 162.53262271072097" stroke="#000000" stroke-width="1" fill="none"></path></g><g transform="translate(876.8560324075784 509.54690649487105) rotate(0 143.63267416760266 82.33999395137346)"><path d="M259.6248238017762 156.15716362782015 C266.27863112216613 160.2576520260631, 270.96329957795353 160.713929842922, 287.34583554476376 162.21793947081395 M259.0309613855535 157.82447014227702 C269.3513457620181 159.33810033022698, 280.9881515452231 162.07591484343888, 287.85461345933254 163.43665362048276" stroke="#000000" stroke-width="1" fill="none"></path></g><g transform="translate(876.8560324075784 509.54690649487105) rotate(0 143.63267416760266 82.33999395137346)"><path d="M269.78219516323276 138.32607253918226 C274.08940272619907 146.72897545406437, 276.30130209090214 151.52615696886292, 287.34583554476376 162.21793947081395 M269.18833274701007 139.99337905363913 C275.6114498629534 148.51237512653947, 283.22323145153655 158.31605052976641, 287.85461345933254 163.43665362048276" stroke="#000000" stroke-width="1" fill="none"></path></g></g><g transform="translate(1272.3169699075784 721.2053717519564) rotate(0 20 12.5)"><text x="0" y="18" font-family="Virgil, Segoe UI Emoji" font-size="20px" fill="#000000" text-anchor="start" style="white-space: pre;" direction="ltr">Edit</text></g><g transform="translate(992.7388449075784 1124.3225592519564) rotate(0 121.90625 160.84765625)"><path d="M0.2399418267636665 -1.6462088910536876 C89.27637877076315 1.5809231137597144, 180.69409051134554 1.2880800776273578, 245.36505171970268 -1.358108332089307 M-0.3875618703744989 -0.7966586974381114 C69.81305717471015 0.3170506652761495, 141.82110142107229 0.7035203130205532, 243.73724757160812 -0.5573195044139455 M244.3756245787824 0.00572855610197758 C242.28585995259886 92.92717442341225, 242.96565416765637 183.72725533310356, 242.79684657867716 323.0061096008906 M243.69284913147436 -0.6234897134098035 C245.15407068908038 72.24119303058917, 244.78237907572546 145.9650647362667, 243.30915895321164 321.3729288917038 M245.0420207876238 320.22984198872234 C185.06837236974812 322.9601601010329, 126.06296058251904 320.90233796092656, 0.8287096022533752 323.2405179726789 M244.35557001567906 321.9978368444927 C151.17358252937805 323.01614295274004, 59.54130582532076 323.2043268185954, 0.1663586840646419 322.33682523433015 M-0.8977817049884106 321.40401426693006 C3.3388601533168587 201.444826959741, 0.7509692618819253 82.36095623320735, -0.4773838329938493 0.6087568539000199 M0.5982222252815943 321.8681601240926 C0.8971157532091849 229.786757393546, 0.8149128394942435 138.33656299648928, 0.27966215112685955 0.3027475321391426" stroke="#000000" stroke-width="1" fill="none"></path></g><g transform="translate(1036.8794699075784 1153.5569342519564) rotate(0 62 12.5)"><text x="0" y="18" font-family="Virgil, Segoe UI Emoji" font-size="20px" fill="#000000" text-anchor="start" style="white-space: pre;" direction="ltr">ResultsTable</text></g><g transform="translate(1372.3872824075784 1109.4475592519564) rotate(0 127.47043557363008 166.52092251712327)"><path d="M-1.39129361636086 -0.6157194462431758 C62.46232466045915 1.195306520031955, 129.17194795680194 2.17484388739928, 254.73033835378897 0.5581720288516274 M0.5284406796055311 0.15201010609535265 C96.2941582583438 -0.07087119594809416, 190.77750249833818 0.36696511432828993, 254.46381781328787 0.19978123441332202 M254.17437612871367 -1.2316359357666664 C254.18984563159853 76.28262324993122, 253.24644866676496 153.0173140634555, 256.02640249120446 333.4595292051051 M255.4897872965615 0.03823776113921233 C254.46647257833638 98.31140361834562, 255.32996744429798 195.80868398744335, 254.86025921855915 333.4489494822665 M255.83934079121804 334.1042977523429 C156.8758983875702 335.5785844593681, 58.62924421922203 335.7437592097619, 0.6268675124721192 332.58879244149455 M255.23907630992971 333.35856462305026 C186.3431011621251 334.84726667430044, 117.50435355415523 334.4715452382969, 0.415148046384964 332.45298954324215 M-1.2412660879970252 332.5411779863558 C0.6411860400704671 222.3480272473462, -0.9180533030622688 111.53542498126997, 0.750205364294247 -1.0641147570289717 M0.3617661816349134 333.05243149290965 C-1.884790735346164 238.2885446926561, -2.053049307482921 144.24372063185103, 0.602974349834698 -0.3083574702219868" stroke="#000000" stroke-width="1" fill="none"></path></g><g transform="translate(1421.9146261575784 1127.2444342519564) rotate(0 44.5 12.5)"><text x="0" y="18" font-family="Virgil, Segoe UI Emoji" font-size="20px" fill="#000000" text-anchor="start" style="white-space: pre;" direction="ltr">ShowInfo</text></g><g><g transform="translate(1231.7630601105698 972.2405280019564) rotate(0 -41.27521466832229 69.78824727934784)"><path d="M0.6400865681469441 0.01873102113604541 C-13.360115204489464 23.07580055321256, -69.16913111823914 116.05597379927833, -83.19051590479157 139.38777859136462 M-0.4830067129153759 -1.0170391381066293 C-14.15771745324941 22.707650662135954, -67.37845256552404 116.87039191024688, -80.81187270794243 140.59353369680233" stroke="#000000" stroke-width="1" fill="none"></path></g><g transform="translate(1231.7630601105698 972.2405280019564) rotate(0 -41.27521466832229 69.78824727934784)"><path d="M-75.82756763500082 109.94711200438395 C-78.47449941454664 120.35276469714726, -79.25874356317603 134.56059156208806, -81.72118690449923 139.08795170319266 M-76.44516214345502 110.0425944115217 C-77.655727210083 119.07310433937232, -79.75981336241695 129.50932741236284, -81.3605816329661 139.8650138789881" stroke="#000000" stroke-width="1" fill="none"></path></g><g transform="translate(1231.7630601105698 972.2405280019564) rotate(0 -41.27521466832229 69.78824727934784)"><path d="M-57.96738329638691 120.05323973841593 C-67.26700478760357 126.83957260304572, -74.61590068269072 137.33281243902158, -81.72118690449923 139.08795170319266 M-58.58497780484112 120.14872214555368 C-65.10519256753447 126.10844127377179, -72.61340121264253 133.4867590549198, -81.3605816329661 139.8650138789881" stroke="#000000" stroke-width="1" fill="none"></path></g></g><g><g transform="translate(1419.0615439288715 973.4410323595694) rotate(0 25.529222181592672 64.61034154310516)"><path d="M0.6656455881893635 0.1781874887645245 C9.222150491572158 21.708516640989643, 43.11605304825672 108.60738220676113, 51.502473570536 129.9945511111835 M-0.4440292073506862 -0.7738680249731988 C7.912876682405532 20.322474358827407, 41.409648034186965 106.45094804581521, 50.3907699368979 128.12845176651462" stroke="#000000" stroke-width="1" fill="none"></path></g><g transform="translate(1419.0615439288715 973.4410323595694) rotate(0 25.529222181592672 64.61034154310516)"><path d="M30.693909326833545 105.24271388453184 C37.633064685123536 111.28245736846995, 41.41462263182281 119.78477310944993, 51.47234087885275 128.6393908691345 M29.897134136673866 106.10750968669294 C35.30998283873328 111.83806285402015, 42.46758637304144 119.09683890261016, 51.16681745537474 128.71821616224332" stroke="#000000" stroke-width="1" fill="none"></path></g><g transform="translate(1419.0615439288715 973.4410323595694) rotate(0 25.529222181592672 64.61034154310516)"><path d="M49.748287851292744 97.623615418672 C50.76319491057526 106.15855872356732, 48.56891207441453 117.05037876050038, 51.47234087885275 128.6393908691345 M48.951512661133066 98.4884112208331 C49.08527131407642 106.30572615584676, 50.963456692951844 115.67553441244377, 51.16681745537474 128.71821616224332" stroke="#000000" stroke-width="1" fill="none"></path></g></g><g transform="translate(1008.5591574075784 1232.6467780019564) rotate(0 56 12.5)"><text x="0" y="18" font-family="Virgil, Segoe UI Emoji" font-size="20px" fill="#000000" text-anchor="start" style="white-space: pre;" direction="ltr">dataSource</text></g><g transform="translate(994.7884489315509 1626.8483512040114) rotate(0 106.212890625 51.990234375)"><path d="M0.9180892629640396 -1.2707120440891977 C80.2173216327764 1.0044988335676892, 163.16635759076823 2.386297234385833, 212.7299203522339 0.928434295967276 M-0.307798063424189 0.06091706659826228 C47.973018587608486 -1.5908577590242934, 95.17684877215329 -1.58647366077482, 212.80480325171 0.07262038105426721 M211.31540487334132 1.0219223089516163 C212.781518474244 41.286871622077165, 212.05824102463615 79.63747233290779, 212.66962037608027 102.33892377093434 M212.6107378397137 0.03954206965863705 C213.86421828777463 37.2880987025048, 212.65209507257612 73.1895999001703, 213.0238677058369 104.21177845261991 M211.2891307185994 102.71563501267869 C159.4563858858977 102.82712818001097, 104.78351557758259 105.02694974656077, 1.5108594070761172 105.10887092125581 M212.10316897725662 104.66453192907714 C142.8175390546769 103.29253384718706, 72.63105427004294 102.96116036624282, 0.40361536057504593 104.1944593586681 M0.39540837332606316 102.73805757239461 C-1.1207921522943798 74.91252549095734, -2.4742499607889474 43.40140457285015, 1.8043952994048595 -0.03450242802500725 M0.5578672084957361 104.78849004767835 C-0.40429999271807904 80.2351968290568, -0.9149194542544865 56.55445266744209, -0.2096479143947363 0.08552425168454647" stroke="#000000" stroke-width="1" fill="none"></path></g><g transform="translate(1028.812100472647 1646.645547265655) rotate(0 61 12.5)"><text x="0" y="18" font-family="Virgil, Segoe UI Emoji" font-size="20px" fill="#000000" text-anchor="start" style="white-space: pre;" direction="ltr">Table (antd)</text></g><g><g transform="translate(1114.4658238511756 1451.2795905019564) rotate(0 -8.255958164703884 81.69803103618983)"><path d="M0.4931751854717732 0.45937790796160693 C-2.4111786792960777 27.923190048095464, -13.638748457176991 136.81931535480857, -16.598318538985858 163.7411147080772 M-0.7070465714950114 -0.345052635697648 C-3.751642550627963 26.87165698665257, -14.149885498896621 134.83317450653146, -17.00509151487955 162.02279534371016" stroke="#000000" stroke-width="1" fill="none"></path></g><g transform="translate(1114.4658238511756 1451.2795905019564) rotate(0 -8.255958164703884 81.69803103618983)"><path d="M-23.635622809060514 134.66713232057646 C-20.64123970363956 144.25468609510605, -20.83041111377015 152.88653350462755, -17.738916047358597 163.578788047595 M-23.980576493196786 133.407845378616 C-21.217593564347986 143.50336732657317, -18.088172913545147 155.06116378687665, -16.807387328216517 161.40158975490746" stroke="#000000" stroke-width="1" fill="none"></path></g><g transform="translate(1114.4658238511756 1451.2795905019564) rotate(0 -8.255958164703884 81.69803103618983)"><path d="M-3.2168503150980037 136.71499272246905 C-7.738883731801197 145.63083627882418, -15.462249790958927 153.50705653757274, -17.738916047358597 163.578788047595 M-3.561803999234275 135.4557057805086 C-8.292313554058298 144.93734337202886, -12.640052621092954 155.74523288717617, -16.807387328216517 161.40158975490746" stroke="#000000" stroke-width="1" fill="none"></path></g></g><g transform="translate(1396.0669699075784 1201.7053717519564) rotate(0 106.5 112.5)"><text x="0" y="18" font-family="Virgil, Segoe UI Emoji" font-size="20px" fill="#000000" text-anchor="start" style="white-space: pre;" direction="ltr">showDownloadBtn</text><text x="0" y="43" font-family="Virgil, Segoe UI Emoji" font-size="20px" fill="#000000" text-anchor="start" style="white-space: pre;" direction="ltr">compileResultResponse</text><text x="0" y="68" font-family="Virgil, Segoe UI Emoji" font-size="20px" fill="#000000" text-anchor="start" style="white-space: pre;" direction="ltr">isLoading</text><text x="0" y="93" font-family="Virgil, Segoe UI Emoji" font-size="20px" fill="#000000" text-anchor="start" style="white-space: pre;" direction="ltr">timerRef</text><text x="0" y="118" font-family="Virgil, Segoe UI Emoji" font-size="20px" fill="#000000" text-anchor="start" style="white-space: pre;" direction="ltr"></text><text x="0" y="143" font-family="Virgil, Segoe UI Emoji" font-size="20px" fill="#000000" text-anchor="start" style="white-space: pre;" direction="ltr">useError</text><text x="0" y="168" font-family="Virgil, Segoe UI Emoji" font-size="20px" fill="#000000" text-anchor="start" style="white-space: pre;" direction="ltr"></text><text x="0" y="193" font-family="Virgil, Segoe UI Emoji" font-size="20px" fill="#000000" text-anchor="start" style="white-space: pre;" direction="ltr">polling()</text><text x="0" y="218" font-family="Virgil, Segoe UI Emoji" font-size="20px" fill="#000000" text-anchor="start" style="white-space: pre;" direction="ltr">handleCompile()</text></g><g transform="translate(1327.7818136575784 1629.3928717519564) rotate(0 70.568359375 52.580078125)"><path d="M0.8082588724792004 -0.5359665565192699 C36.47951422005354 1.5695346288663132, 73.33471045507905 -1.9586012668627517, 139.58127854391932 1.3458122797310352 M-0.713366886600852 -0.9329831097275019 C40.228418346949184 -1.0608048646583483, 80.87611521685176 -0.674619874252312, 141.0362898502499 0.19658016227185726 M141.81109593436122 0.8610663004219532 C142.10948586349048 20.918733108786547, 140.1024636018709 46.25174858048122, 140.00938950106502 103.84998090937734 M140.8743764553219 0.4750935938209295 C140.8825426146805 34.763348002070416, 142.04440850470658 69.50618271732674, 141.74931738711894 105.90896861813962 M139.71555576846004 104.20187433436513 C98.6727255513666 103.67294160450336, 59.47960770609933 102.97505930984852, 1.3419308476150036 105.50410147383809 M141.1995713505894 105.11803930066526 C109.78985528951671 104.93209085940506, 77.38793074760906 105.14661828755524, 0.3439004812389612 105.58028613589704 M0.8808913044631481 106.66431399062276 C-1.8293574926643486 73.69209718699784, 0.6882250430793648 39.42711381232802, 1.0983117632567883 0.6071241684257984 M-0.3422133531421423 104.17938672564924 C0.20766086163952413 80.80353759225473, 0.645981677202726 57.375310758054546, -0.17306389473378658 0.032737305387854576" stroke="#000000" stroke-width="1" fill="none"></path></g><g transform="translate(1366.0513449075784 1644.3108405019564) rotate(0 33.5 12.5)"><text x="0" y="18" font-family="Virgil, Segoe UI Emoji" font-size="20px" fill="#000000" text-anchor="start" style="white-space: pre;" direction="ltr">Button</text></g><g><g transform="translate(1438.9102422316887 1461.7608335391735) rotate(0 -37.10888559039188 80.64442384756057)"><path d="M-0.31481075361371036 0.5701123125851155 C-13.066890437463211 27.30194576503825, -63.566963347093704 134.56353519866823, -75.93854605218344 161.46503036376785 M1.7207748713996263 -0.17618266864679755 C-10.709044086057608 26.713174465029727, -60.90761872714343 132.8976848186145, -73.70358509785444 159.62525677887487" stroke="#000000" stroke-width="1" fill="none"></path></g><g transform="translate(1438.9102422316887 1461.7608335391735) rotate(0 -37.10888559039188 80.64442384756057)"><path d="M-69.92313813918493 128.24479600628177 C-70.69267669007318 140.9493920142131, -70.82036445527353 151.75341204452815, -72.2059603615752 159.46890171451258 M-71.35246628464422 129.1458865406857 C-72.44344659648335 139.98101729437323, -73.72420664514608 150.07587383682875, -73.5316124859354 158.9152067231177" stroke="#000000" stroke-width="1" fill="none"></path></g><g transform="translate(1438.9102422316887 1461.7608335391735) rotate(0 -37.10888559039188 80.64442384756057)"><path d="M-51.38767276737141 137.0514143036841 C-58.68318047742117 146.64419841545563, -65.25801599212244 154.38503291479657, -72.2059603615752 159.46890171451258 M-52.81700091283071 137.95250483808803 C-59.98770964959098 145.75648424045713, -67.37098267437908 152.95189901775439, -73.5316124859354 158.9152067231177" stroke="#000000" stroke-width="1" fill="none"></path></g></g><g transform="translate(1674.8736105325784 1634.8948248769564) rotate(0 70.568359375 52.580078125)"><path d="M-1.3981439284980297 -1.8055725283920765 C52.788703069568875 0.8297506762213742, 108.55399931690336 0.5929844570822751, 141.5881118364632 1.1956766657531261 M0.13598780892789364 0.2675247583538294 C45.615845664892554 0.7184908038425055, 91.0637725973953 -0.24030599534038632, 140.26372765563428 -0.15311612747609615 M142.60788245871663 -1.4566165395081043 C140.9271294570316 43.048982092146616, 141.57158190969122 80.75609973625251, 140.61289509013295 103.66827080771327 M141.6327562239021 0.22490272857248783 C141.28281621878173 36.94501238497688, 141.24875317757156 76.5341196152338, 140.73009102605283 104.8332935962826 M142.50446136668324 103.46400616690516 C99.75378852937064 106.184598948391, 56.755637206950624 106.87624612036518, -0.8359048776328564 103.19580803439021 M141.35584872029722 104.78295246697962 C106.22073493294957 104.37542418149293, 70.98813846432749 105.24508426097215, -0.9625364635139704 104.56252596713603 M1.5241367407143116 104.76476727053523 C-2.112521164680147 77.69640323136481, -1.8548561265713215 46.12032968902057, -0.9515253715217113 0.9187912754714489 M0.5669230129569769 105.10091469623148 C-0.416156577958245 78.10417021773974, -1.566091048611779 53.465803195913026, -0.7107002232223749 -0.21047516725957394" stroke="#000000" stroke-width="1" fill="none"></path></g><g transform="translate(1715.3228292825784 1651.0471686269564) rotate(0 33.5 12.5)"><text x="0" y="18" font-family="Virgil, Segoe UI Emoji" font-size="20px" fill="#000000" text-anchor="start" style="white-space: pre;" direction="ltr">Button</text></g><g><g transform="translate(1604.3937343835673 1462.1904527723848) rotate(0 44.23864481249154 80.17264608457742)"><path d="M-0.9890905626118183 -1.1905478350818157 C13.593848295714043 25.54404984682661, 72.18697379184555 133.47674334793595, 87.24506294924367 160.59142754717837 M0.6924981626775115 0.7988106061611324 C15.66774274174989 27.62285444320042, 74.71293670829985 134.55268351346498, 89.466380187595 161.53584000423658" stroke="#000000" stroke-width="1" fill="none"></path></g><g transform="translate(1604.3937343835673 1462.1904527723848) rotate(0 44.23864481249154 80.17264608457742)"><path d="M64.90627769128962 140.22147203846023 C71.33580254734011 149.44272623169724, 79.1436100250523 154.60761948698647, 88.25948696332586 159.59301130801546 M66.85626200148447 141.91410945406304 C75.1432053543398 148.79472989809534, 84.53957825124344 157.39625899740204, 90.0238463760407 160.98622246600794" stroke="#000000" stroke-width="1" fill="none"></path></g><g transform="translate(1604.3937343835673 1462.1904527723848) rotate(0 44.23864481249154 80.17264608457742)"><path d="M82.88744401016507 130.3322020856893 C84.3162283509367 142.16388434076288, 87.10814483183499 150.0874140071449, 88.25948696332586 159.59301130801546 M84.83742832035992 132.0248395012921 C86.2497033734436 142.8087578658061, 88.70893806938099 155.22556964213356, 90.0238463760407 160.98622246600794" stroke="#000000" stroke-width="1" fill="none"></path></g></g><g transform="translate(1366.5083761575784 1679.6858405019564) rotate(0 39.5 12.5)"><text x="0" y="18" font-family="Virgil, Segoe UI Emoji" font-size="20px" fill="#000000" text-anchor="start" style="white-space: pre;" direction="ltr">(compile)</text></g><g transform="translate(1694.1411886575784 1686.2405280019564) rotate(0 50 12.5)"><text x="0" y="18" font-family="Virgil, Segoe UI Emoji" font-size="20px" fill="#000000" text-anchor="start" style="white-space: pre;" direction="ltr">(download)</text></g><g transform="translate(1306.1411886575784 1875.6624030019564) rotate(0 83.533203125 40.353515625)"><path d="M0.0024997778236865997 0.6667753271758556 C41.26983730458524 2.1872646655017887, 79.98415435405187 2.0408114041263614, 166.88914235308766 -0.7055678553879261 M0.4998606350272894 0.7727134022861719 C62.58299611937619 -2.03641350083788, 125.06028710604443 -0.9426800113244826, 167.86725693009794 -0.13682099245488644 M168.1971515007317 -1.7960019297897816 C168.39746443828983 19.6699309862619, 165.43103508552952 39.44736826632725, 168.95154996588826 82.47934089228511 M166.69348459504545 0.69879368878901 C166.40380221632245 20.502052983939215, 167.6854034664941 41.49334061466071, 166.41554664634168 81.06310305930674 M166.07764383032918 80.15627131983638 C116.17775090117138 79.45231649380956, 69.57859726034366 80.18911060792242, -1.386993806809187 81.12898276373744 M167.11129640601575 81.59975228644907 C117.3038745296617 80.88576806684294, 67.29771264781448 79.40280706783095, 0.8202873971313238 80.79997817613184 M-0.939885538071394 79.49222300574183 C0.6746541152433929 52.53532566568538, 0.15957211355729672 23.626016674017592, -1.9017575196921825 0.2627669386565685 M0.8294069077819586 81.00787679292262 C-0.37209253376749984 57.33842873781032, 0.33355427914830216 31.31123265108181, 0.6712618973106146 0.48304508067667484" stroke="#000000" stroke-width="1" fill="none"></path></g><g transform="translate(1324.5630636575784 1891.8616217519564) rotate(0 65 12.5)"><text x="0" y="18" font-family="Virgil, Segoe UI Emoji" font-size="20px" fill="#000000" text-anchor="start" style="white-space: pre;" direction="ltr">ReactLoading</text></g><g><g transform="translate(1336.3204666046277 1750.8850592519564) rotate(0 -6.012255361557322 59.29686768889894)"><path d="M-1.0395533569157123 -1.0800916783511638 C-2.9326220606336846 18.72021094635129, -9.91185185540212 98.39758685901761, -11.951669674110326 118.47135979011655 M0.6155424013640731 0.9672562451753768 C-1.3403605619235444 20.945015183547515, -10.733952454968595 99.69954518572428, -12.640053124478746 119.67382705614902" stroke="#000000" stroke-width="1" fill="none"></path></g><g transform="translate(1336.3204666046277 1750.8850592519564) rotate(0 -6.012255361557322 59.29686768889894)"><path d="M-21.594400736075862 91.36367825836834 C-19.14526862703955 96.51432520475757, -15.86738993463089 105.22282684272453, -13.866477479538608 118.94378396154382 M-19.00568274086438 91.37002511181828 C-18.050180437234854 100.19233991252659, -15.0844639736087 108.8842507227477, -13.486835233247566 120.65465467640199" stroke="#000000" stroke-width="1" fill="none"></path></g><g transform="translate(1336.3204666046277 1750.8850592519564) rotate(0 -6.012255361557322 59.29686768889894)"><path d="M-1.1933590704673822 93.58122224754788 C-3.849843623195924 97.99950411063946, -5.683688264415195 106.15237375987596, -13.866477479538608 118.94378396154382 M1.3953589247440998 93.58756910099783 C-3.8808283473181433 101.84425039908955, -7.127004977699839 109.86094342299216, -13.486835233247566 120.65465467640199" stroke="#000000" stroke-width="1" fill="none"></path></g></g><g transform="translate(1342.6294699075784 1803.0061530019564) rotate(0 92 12.5)"><text x="0" y="18" font-family="Virgil, Segoe UI Emoji" font-size="20px" fill="#000000" text-anchor="start" style="white-space: pre;" direction="ltr">isLoading === true</text></g><g transform="translate(1665.6294699075784 1461.9670905019564) rotate(0 109.5 37.5)"><text x="0" y="18" font-family="Virgil, Segoe UI Emoji" font-size="20px" fill="#000000" text-anchor="start" style="white-space: pre;" direction="ltr">showDownloadBtn</text><text x="0" y="43" font-family="Virgil, Segoe UI Emoji" font-size="20px" fill="#000000" text-anchor="start" style="white-space: pre;" direction="ltr">&amp;&amp;</text><text x="0" y="68" font-family="Virgil, Segoe UI Emoji" font-size="20px" fill="#000000" text-anchor="start" style="white-space: pre;" direction="ltr">CompileResultResponse</text></g><g transform="translate(10 1446.9360476129684) rotate(0 140.37109375 80.45758928571433)"><path d="M-0.47852123088200804 0.8600462820900878 C104.30828859561261 1.029326668110444, 208.5547679948798 2.1587949382829374, 281.53863734134904 1.274611821323465 M-0.3968117882184761 0.2214337496882377 C110.03046382289789 -1.3969865782833595, 221.66299299117722 -1.4447737721768155, 281.2048515349659 0.6209573697357371 M281.987984161824 -0.14933709427714348 C280.7271492816587 47.97509443519191, 283.0687369443555 93.25304845611605, 282.458670001477 161.2420073678452 M280.1614072714001 -0.8424147460609674 C280.17379729598633 50.373996765964, 280.894207344948 102.4008235459333, 281.53619943000376 160.665051783036 M281.7898226789893 160.27176943992268 C191.45657897869663 159.31391481116546, 106.24702459115525 160.08586063839212, 1.4460937774169533 161.4734332651867 M280.95836766672096 160.780909516309 C204.66536622682784 162.9544143499037, 129.24061001045467 163.02358327276875, -0.5781648740430542 161.60604688915893 M-0.34238221123814583 161.7834598948914 C1.4043174495841546 96.80694483115394, 1.0913106908942742 31.931462024496554, 1.109832864254713 0.7421904392540455 M-0.998046001419425 160.23664405436398 C-0.921132696445317 126.95555747545282, -0.44794936257156825 91.5951156566735, 0.8499097619205713 -0.0058823321014642715" stroke="#000000" stroke-width="1" fill="none"></path></g><g transform="translate(111.7663976648351 1478.9658381349468) rotate(0 45 12.5)"><text x="0" y="18" font-family="Virgil, Segoe UI Emoji" font-size="20px" fill="#000000" text-anchor="start" style="white-space: pre;" direction="ltr">ErrorBox</text></g><g transform="translate(20.43068910256403 1696.169249307108) rotate(0 146.86104910714286 115.14787946428578)"><path d="M-0.3064427206824835 -0.4373328855923648 C93.77363880699966 -0.36248536612734106, 185.66446825611007 -0.050266273736454314, 295.0929652720127 -0.5136282549910004 M0.6913163015496193 -0.40505235367625114 C98.9490057938436 0.486963599474862, 198.52577881224659 0.6091625262269885, 294.2698970468507 0.7127926719914561 M293.4843082494091 -0.22577847154629394 C291.6115621432133 53.17952096793165, 294.0985117737362 105.68594847195361, 292.278355308912 230.477434258069 M294.3725563634723 -0.10462717233163434 C295.8736794424968 64.95391711880703, 295.0499908511345 127.93542390303399, 294.00418473683544 229.77751376907952 M294.83873967205824 230.06530576244694 C233.14059477831495 232.73465037223795, 174.37361578227743 231.47305114773982, 0.9438792968716693 229.67780799771404 M293.6427747268684 230.137916282455 C233.84018012236731 231.64115708566243, 174.94202758687285 231.9236726558181, 0.41534156816566487 230.50776734445608 M1.508191613496386 228.63383906621914 C-0.21509355460736646 169.93278467865727, 0.05707311302937734 106.6912648125426, 1.6814657849859915 0.2037384606176573 M0.07710484055914814 229.81517640296275 C-2.384827445134374 145.72299534297267, -2.313753052123994 62.189208745368866, -0.18527334681479046 -0.03556259675400583" stroke="#000000" stroke-width="1" fill="none"></path></g><g transform="translate(67.25188873626365 1716.0082488492324) rotate(0 114.5 87.5)"><text x="0" y="18" font-family="Virgil, Segoe UI Emoji" font-size="20px" fill="#000000" text-anchor="start" style="white-space: pre;" direction="ltr">useError (custom hook)</text><text x="0" y="43" font-family="Virgil, Segoe UI Emoji" font-size="20px" fill="#000000" text-anchor="start" style="white-space: pre;" direction="ltr"></text><text x="0" y="68" font-family="Virgil, Segoe UI Emoji" font-size="20px" fill="#000000" text-anchor="start" style="white-space: pre;" direction="ltr">error</text><text x="0" y="93" font-family="Virgil, Segoe UI Emoji" font-size="20px" fill="#000000" text-anchor="start" style="white-space: pre;" direction="ltr"></text><text x="0" y="118" font-family="Virgil, Segoe UI Emoji" font-size="20px" fill="#000000" text-anchor="start" style="white-space: pre;" direction="ltr"></text><text x="0" y="143" font-family="Virgil, Segoe UI Emoji" font-size="20px" fill="#000000" text-anchor="start" style="white-space: pre;" direction="ltr">setError()</text><text x="0" y="168" font-family="Virgil, Segoe UI Emoji" font-size="20px" fill="#000000" text-anchor="start" style="white-space: pre;" direction="ltr">clearError()</text></g><g transform="translate(585.6612787792935 10) rotate(0 78 12.5)"><text x="0" y="18" font-family="Virgil, Segoe UI Emoji" font-size="20px" fill="#000000" text-anchor="start" style="white-space: pre;" direction="ltr">Component Tree</text></g><g transform="translate(325.80577546070936 416.555171460177) rotate(0 17.7972206858407 9.466606747787608)"><text x="0" y="12.933213495575217" font-family="Virgil, Segoe UI Emoji" font-size="15.146570796460171px" fill="#000000" text-anchor="start" style="white-space: pre;" direction="ltr">text</text></g><g transform="translate(696.9652057704438 383.4038993362832) rotate(0 65.32674225663715 28.320842018773334)"><text x="0" y="12.880561345848893" font-family="Virgil, Segoe UI Emoji" font-size="15.104449076679117px" fill="#000000" text-anchor="start" style="white-space: pre;" direction="ltr">setScreen</text><text x="0" y="31.761122691697786" font-family="Virgil, Segoe UI Emoji" font-size="15.104449076679117px" fill="#000000" text-anchor="start" style="white-space: pre;" direction="ltr">setResponse</text><text x="0" y="50.64168403754668" font-family="Virgil, Segoe UI Emoji" font-size="15.104449076679117px" fill="#000000" text-anchor="start" style="white-space: pre;" direction="ltr">setProcessingFlag</text></g><g transform="translate(1039.0662843102668 637.9289269911505) rotate(0 24 12.5)"><text x="0" y="18" font-family="Virgil, Segoe UI Emoji" font-size="20px" fill="#000000" text-anchor="start" style="white-space: pre;" direction="ltr">data</text></g><g transform="translate(677.4063009031872 698.0069137168141) rotate(0 61 12.5)"><text x="0" y="18" font-family="Virgil, Segoe UI Emoji" font-size="20px" fill="#000000" text-anchor="start" style="white-space: pre;" direction="ltr">handleUpload</text></g><g transform="translate(446.3153163899129 1062.4923949115046) rotate(0 45.5 25)"><text x="0" y="18" font-family="Virgil, Segoe UI Emoji" font-size="20px" fill="#000000" text-anchor="start" style="white-space: pre;" direction="ltr">label,</text><text x="0" y="43" font-family="Virgil, Segoe UI Emoji" font-size="20px" fill="#000000" text-anchor="start" style="white-space: pre;" direction="ltr">onChange</text></g><g transform="translate(793.5904823191165 1082.1291482300883) rotate(0 45.5 24.999999999999943)"><text x="0" y="18" font-family="Virgil, Segoe UI Emoji" font-size="20px" fill="#000000" text-anchor="start" style="white-space: pre;" direction="ltr">label,</text><text x="0" y="43" font-family="Virgil, Segoe UI Emoji" font-size="20px" fill="#000000" text-anchor="start" style="white-space: pre;" direction="ltr">onChange</text></g><g transform="translate(1114.5907689819364 1038.0255603874589) rotate(0 24 12.5)"><text x="0" y="18" font-family="Virgil, Segoe UI Emoji" font-size="20px" fill="#000000" text-anchor="start" style="white-space: pre;" direction="ltr">data</text></g><g transform="translate(1482.4197501463198 1051.7130603874589) rotate(0 24 12.5)"><text x="0" y="18" font-family="Virgil, Segoe UI Emoji" font-size="20px" fill="#000000" text-anchor="start" style="white-space: pre;" direction="ltr">data</text></g><g transform="translate(980.1033974065938 1529.8883600449929) rotate(0 60 25)"><text x="0" y="18" font-family="Virgil, Segoe UI Emoji" font-size="20px" fill="#000000" text-anchor="start" style="white-space: pre;" direction="ltr">dataSource,</text><text x="0" y="43" font-family="Virgil, Segoe UI Emoji" font-size="20px" fill="#000000" text-anchor="start" style="white-space: pre;" direction="ltr">columns</text></g><g transform="translate(1405.2639282285118 1556.8684542230756) rotate(0 33.5 25)"><text x="0" y="18" font-family="Virgil, Segoe UI Emoji" font-size="20px" fill="#000000" text-anchor="start" style="white-space: pre;" direction="ltr">text,</text><text x="0" y="43" font-family="Virgil, Segoe UI Emoji" font-size="20px" fill="#000000" text-anchor="start" style="white-space: pre;" direction="ltr">onClick</text></g></svg>